<mxfile host="app.diagrams.net" agent="Mozilla/5.0 (Windows NT 10.0; Win64; x64) AppleWebKit/537.36 (KHTML, like Gecko) Chrome/134.0.0.0 Safari/537.36" version="26.1.0">
  <diagram name="Page-1" id="eErU4xGRzxrQMuPbnw2x">
    <mxGraphModel dx="1001" dy="420" grid="1" gridSize="10" guides="1" tooltips="1" connect="1" arrows="1" fold="1" page="1" pageScale="1" pageWidth="850" pageHeight="1100" math="0" shadow="0">
      <root>
        <mxCell id="0" />
        <mxCell id="1" parent="0" />
        <mxCell id="6NFodX1d_WPXUt1JpVSc-1" value="Proxmox111" style="rounded=1;whiteSpace=wrap;html=1;" vertex="1" parent="1">
          <mxGeometry x="50" y="120" width="120" height="100" as="geometry" />
        </mxCell>
        <mxCell id="6NFodX1d_WPXUt1JpVSc-2" value="Proxmox112" style="rounded=1;whiteSpace=wrap;html=1;" vertex="1" parent="1">
          <mxGeometry x="280" y="120" width="120" height="100" as="geometry" />
        </mxCell>
        <mxCell id="6NFodX1d_WPXUt1JpVSc-4" value="Proxmox113" style="rounded=1;whiteSpace=wrap;html=1;" vertex="1" parent="1">
          <mxGeometry x="520" y="120" width="120" height="100" as="geometry" />
        </mxCell>
        <mxCell id="6NFodX1d_WPXUt1JpVSc-5" value="Ceph node1" style="text;html=1;align=center;verticalAlign=middle;whiteSpace=wrap;rounded=0;" vertex="1" parent="1">
          <mxGeometry x="80" y="180" width="60" height="30" as="geometry" />
        </mxCell>
        <mxCell id="6NFodX1d_WPXUt1JpVSc-6" value="Ceph node2" style="text;html=1;align=center;verticalAlign=middle;whiteSpace=wrap;rounded=0;" vertex="1" parent="1">
          <mxGeometry x="310" y="180" width="60" height="30" as="geometry" />
        </mxCell>
        <mxCell id="6NFodX1d_WPXUt1JpVSc-7" value="Ceph node3" style="text;html=1;align=center;verticalAlign=middle;whiteSpace=wrap;rounded=0;" vertex="1" parent="1">
          <mxGeometry x="550" y="180" width="60" height="30" as="geometry" />
        </mxCell>
        <mxCell id="6NFodX1d_WPXUt1JpVSc-9" value="" style="endArrow=none;dashed=1;html=1;dashPattern=1 3;strokeWidth=2;rounded=0;exitX=0.5;exitY=0;exitDx=0;exitDy=0;" edge="1" parent="1" source="6NFodX1d_WPXUt1JpVSc-1">
          <mxGeometry width="50" height="50" relative="1" as="geometry">
            <mxPoint x="110" y="110" as="sourcePoint" />
            <mxPoint x="110" y="40" as="targetPoint" />
          </mxGeometry>
        </mxCell>
        <mxCell id="6NFodX1d_WPXUt1JpVSc-10" value="" style="endArrow=none;html=1;rounded=0;entryX=0;entryY=0.75;entryDx=0;entryDy=0;" edge="1" parent="1">
          <mxGeometry width="50" height="50" relative="1" as="geometry">
            <mxPoint x="800" y="43" as="sourcePoint" />
            <mxPoint y="42.5" as="targetPoint" />
          </mxGeometry>
        </mxCell>
        <mxCell id="6NFodX1d_WPXUt1JpVSc-11" value="" style="endArrow=none;html=1;rounded=0;" edge="1" parent="1">
          <mxGeometry width="50" height="50" relative="1" as="geometry">
            <mxPoint x="800" y="280" as="sourcePoint" />
            <mxPoint x="10" y="280" as="targetPoint" />
          </mxGeometry>
        </mxCell>
        <mxCell id="6NFodX1d_WPXUt1JpVSc-12" value="" style="endArrow=none;dashed=1;html=1;dashPattern=1 3;strokeWidth=2;rounded=0;exitX=0.5;exitY=0;exitDx=0;exitDy=0;" edge="1" parent="1" source="6NFodX1d_WPXUt1JpVSc-2">
          <mxGeometry width="50" height="50" relative="1" as="geometry">
            <mxPoint x="380" y="150" as="sourcePoint" />
            <mxPoint x="340" y="40" as="targetPoint" />
          </mxGeometry>
        </mxCell>
        <mxCell id="6NFodX1d_WPXUt1JpVSc-13" value="" style="endArrow=none;dashed=1;html=1;dashPattern=1 3;strokeWidth=2;rounded=0;exitX=0.5;exitY=0;exitDx=0;exitDy=0;" edge="1" parent="1" source="6NFodX1d_WPXUt1JpVSc-4">
          <mxGeometry width="50" height="50" relative="1" as="geometry">
            <mxPoint x="380" y="150" as="sourcePoint" />
            <mxPoint x="580" y="40" as="targetPoint" />
          </mxGeometry>
        </mxCell>
        <mxCell id="6NFodX1d_WPXUt1JpVSc-14" value="" style="endArrow=none;dashed=1;html=1;dashPattern=1 3;strokeWidth=2;rounded=0;entryX=0.5;entryY=1;entryDx=0;entryDy=0;" edge="1" parent="1" target="6NFodX1d_WPXUt1JpVSc-1">
          <mxGeometry width="50" height="50" relative="1" as="geometry">
            <mxPoint x="110" y="280" as="sourcePoint" />
            <mxPoint x="430" y="100" as="targetPoint" />
          </mxGeometry>
        </mxCell>
        <mxCell id="6NFodX1d_WPXUt1JpVSc-15" value="" style="endArrow=none;dashed=1;html=1;dashPattern=1 3;strokeWidth=2;rounded=0;exitX=0.5;exitY=1;exitDx=0;exitDy=0;" edge="1" parent="1" source="6NFodX1d_WPXUt1JpVSc-2">
          <mxGeometry width="50" height="50" relative="1" as="geometry">
            <mxPoint x="380" y="150" as="sourcePoint" />
            <mxPoint x="340" y="280" as="targetPoint" />
          </mxGeometry>
        </mxCell>
        <mxCell id="6NFodX1d_WPXUt1JpVSc-16" value="" style="endArrow=none;dashed=1;html=1;dashPattern=1 3;strokeWidth=2;rounded=0;entryX=0.5;entryY=1;entryDx=0;entryDy=0;" edge="1" parent="1" target="6NFodX1d_WPXUt1JpVSc-4">
          <mxGeometry width="50" height="50" relative="1" as="geometry">
            <mxPoint x="580" y="280" as="sourcePoint" />
            <mxPoint x="430" y="100" as="targetPoint" />
          </mxGeometry>
        </mxCell>
        <mxCell id="6NFodX1d_WPXUt1JpVSc-17" value="Network 172.16.9.0/24 + Ra internet" style="text;html=1;align=center;verticalAlign=middle;whiteSpace=wrap;rounded=0;" vertex="1" parent="1">
          <mxGeometry x="610" y="50" width="170" height="30" as="geometry" />
        </mxCell>
        <mxCell id="6NFodX1d_WPXUt1JpVSc-19" value="10.10.100.111" style="text;strokeColor=none;fillColor=none;align=left;verticalAlign=middle;spacingLeft=4;spacingRight=4;overflow=hidden;points=[[0,0.5],[1,0.5]];portConstraint=eastwest;rotatable=0;whiteSpace=wrap;html=1;" vertex="1" parent="1">
          <mxGeometry x="10" y="240" width="90" height="30" as="geometry" />
        </mxCell>
        <mxCell id="6NFodX1d_WPXUt1JpVSc-20" value="Cluster + Mon Network 10.10.100.0/24" style="text;html=1;align=center;verticalAlign=middle;resizable=0;points=[];autosize=1;strokeColor=none;fillColor=none;" vertex="1" parent="1">
          <mxGeometry x="590" y="250" width="230" height="30" as="geometry" />
        </mxCell>
        <mxCell id="6NFodX1d_WPXUt1JpVSc-22" value="172.16.9.111" style="text;html=1;align=center;verticalAlign=middle;whiteSpace=wrap;rounded=0;" vertex="1" parent="1">
          <mxGeometry x="40" y="90" width="60" height="30" as="geometry" />
        </mxCell>
        <mxCell id="6NFodX1d_WPXUt1JpVSc-23" value="172.16.9.112" style="text;html=1;align=center;verticalAlign=middle;whiteSpace=wrap;rounded=0;" vertex="1" parent="1">
          <mxGeometry x="260" y="90" width="60" height="30" as="geometry" />
        </mxCell>
        <mxCell id="6NFodX1d_WPXUt1JpVSc-24" value="172.16.9.113" style="text;html=1;align=center;verticalAlign=middle;whiteSpace=wrap;rounded=0;" vertex="1" parent="1">
          <mxGeometry x="490" y="90" width="60" height="30" as="geometry" />
        </mxCell>
        <mxCell id="6NFodX1d_WPXUt1JpVSc-25" value="Cisco C3750" style="text;html=1;align=center;verticalAlign=middle;whiteSpace=wrap;rounded=0;" vertex="1" parent="1">
          <mxGeometry x="10" y="10" width="60" height="30" as="geometry" />
        </mxCell>
        <mxCell id="6NFodX1d_WPXUt1JpVSc-26" value="10.10.100.112" style="text;strokeColor=none;fillColor=none;align=left;verticalAlign=middle;spacingLeft=4;spacingRight=4;overflow=hidden;points=[[0,0.5],[1,0.5]];portConstraint=eastwest;rotatable=0;whiteSpace=wrap;html=1;" vertex="1" parent="1">
          <mxGeometry x="230" y="240" width="90" height="30" as="geometry" />
        </mxCell>
        <mxCell id="6NFodX1d_WPXUt1JpVSc-27" value="10.10.100.113" style="text;strokeColor=none;fillColor=none;align=left;verticalAlign=middle;spacingLeft=4;spacingRight=4;overflow=hidden;points=[[0,0.5],[1,0.5]];portConstraint=eastwest;rotatable=0;whiteSpace=wrap;html=1;" vertex="1" parent="1">
          <mxGeometry x="475" y="240" width="90" height="30" as="geometry" />
        </mxCell>
        <mxCell id="6NFodX1d_WPXUt1JpVSc-28" value="Mô Hình HA PROXMOX + CEPH" style="text;html=1;align=center;verticalAlign=middle;whiteSpace=wrap;rounded=0;" vertex="1" parent="1">
          <mxGeometry x="270" y="300" width="170" height="30" as="geometry" />
        </mxCell>
      </root>
    </mxGraphModel>
  </diagram>
</mxfile>
